<svg width="38" height="50" viewBox="0 0 38 50" fill="none" xmlns="http://www.w3.org/2000/svg">
<path d="M28.375 25H9.625V31.25H28.375V25ZM37.0664 10.2539L27.5059 0.683594C27.0664 0.244141 26.4707 0 25.8457 0H25.25V12.5H37.75V11.9043C37.75 11.2891 37.5059 10.6934 37.0664 10.2539ZM22.125 13.2812V0H2.59375C1.29492 0 0.25 1.04492 0.25 2.34375V47.6562C0.25 48.9551 1.29492 50 2.59375 50H35.4062C36.7051 50 37.75 48.9551 37.75 47.6562V15.625H24.4688C23.1797 15.625 22.125 14.5703 22.125 13.2812ZM6.5 7.03125C6.5 6.59961 6.84961 6.25 7.28125 6.25H15.0938C15.5254 6.25 15.875 6.59961 15.875 7.03125V8.59375C15.875 9.02539 15.5254 9.375 15.0938 9.375H7.28125C6.84961 9.375 6.5 9.02539 6.5 8.59375V7.03125ZM6.5 13.2812C6.5 12.8496 6.84961 12.5 7.28125 12.5H15.0938C15.5254 12.5 15.875 12.8496 15.875 13.2812V14.8438C15.875 15.2754 15.5254 15.625 15.0938 15.625H7.28125C6.84961 15.625 6.5 15.2754 6.5 14.8438V13.2812ZM31.5 42.9688C31.5 43.4004 31.1504 43.75 30.7188 43.75H22.9062C22.4746 43.75 22.125 43.4004 22.125 42.9688V41.4062C22.125 40.9746 22.4746 40.625 22.9062 40.625H30.7188C31.1504 40.625 31.5 40.9746 31.5 41.4062V42.9688ZM31.5 23.4375V32.8125C31.5 33.6758 30.8008 34.375 29.9375 34.375H8.0625C7.19922 34.375 6.5 33.6758 6.5 32.8125V23.4375C6.5 22.5742 7.19922 21.875 8.0625 21.875H29.9375C30.8008 21.875 31.5 22.5742 31.5 23.4375Z" fill="url(#paint0_linear_1_1286)"/>
<defs>
<linearGradient id="paint0_linear_1_1286" x1="44.3827" y1="-9.42983" x2="-24.7127" y2="22.1253" gradientUnits="userSpaceOnUse">
<stop stop-color="#0283E9"/>
<stop offset="1" stop-color="#FC01CA"/>
</linearGradient>
</defs>
</svg>
